<svg xmlns="http://www.w3.org/2000/svg" width="691.52" height="246.609" viewBox="-72 -72 518.64 184.957"><g stroke="#000" stroke-miterlimit="10" stroke-width=".4"><text x="-37.726" y="3.701" stroke="none" font-family="cmbx10" font-size="10" transform="translate(6.533 -6.533)">A</text><text x="-37.726" y="3.701" stroke="none" font-family="cmbx10" font-size="10" transform="translate(109.72 16.394)">B</text><text x="-37.726" y="3.701" stroke="none" font-family="cmbx10" font-size="10" transform="translate(337.28 16.394)">C</text><text x="-37.726" y="3.701" stroke="none" font-family="cmbx10" font-size="10" transform="translate(439.892 -6.533)">D</text><g stroke="#999"><path fill="none" d="M-37.426 71.988h454.644M-37.526 74.288v-4.6M417.318 69.688v4.6"/><g fill="#fff"><path stroke="none" d="M178.23 78.543h23.332v-13.11h-23.333Z"/><g fill="#000" stroke="none" font-family="cmr10" font-size="10"><text x="-37.726" y="3.701" transform="translate(219.289 71.509)">8</text><text x="-29.393" y="3.701" transform="translate(219.289 71.509)">m</text></g></g></g><g stroke="#999"><path fill="none" d="M-37.426 106.131h113.21M-37.526 108.431v-4.6M75.885 103.831v4.6"/><g fill="#fff"><path stroke="none" d="M7.513 112.687h23.332v-13.11H7.513Z"/><g fill="#000" stroke="none" font-family="cmr10" font-size="10"><text x="-37.726" y="3.701" transform="translate(48.572 105.652)">2</text><text x="-29.393" y="3.701" transform="translate(48.572 105.652)">m</text></g></g></g><g stroke="#999"><path fill="none" d="M76.385 106.131h227.022M76.285 108.431v-4.6M303.507 103.831v4.6"/><g fill="#fff"><path stroke="none" d="M178.23 112.687h23.332v-13.11h-23.333Z"/><g fill="#000" stroke="none" font-family="cmr10" font-size="10"><text x="-37.726" y="3.701" transform="translate(219.289 105.652)">4</text><text x="-29.393" y="3.701" transform="translate(219.289 105.652)">m</text></g></g></g><g stroke="#999"><path fill="none" d="M304.007 106.131h113.21M303.907 108.431v-4.6M417.318 103.831v4.6"/><g fill="#fff"><path stroke="none" d="M348.946 112.687h23.332v-13.11h-23.332Z"/><g fill="#000" stroke="none" font-family="cmr10" font-size="10"><text x="-37.726" y="3.701" transform="translate(390.005 105.652)">2</text><text x="-29.393" y="3.701" transform="translate(390.005 105.652)">m</text></g></g></g><path fill="none" stroke-width="2" d="M-37.726 3.701h455.244"/><path fill="none" stroke-width=".8" d="m-37.726 3.701-17.072 28.453h34.143ZM-66.18 32.154h56.906"/><path fill="none" stroke="gray" d="m-60.488 32.154-8.536 11.381M-49.107 32.154l-8.536 11.381M-37.726 32.154l-8.536 11.381M-26.345 32.154l-8.536 11.381M-14.965 32.154-23.5 43.535"/><path fill="none" stroke-width=".8" d="m417.518 3.701-17.072 22.762h34.143ZM389.065 31.016h56.905"/><path fill="#fff" stroke-width=".8" d="M408.412 28.74a2.276 2.276 0 1 0-4.551 0 2.276 2.276 0 0 0 4.551 0ZM419.79299999999995 28.74a2.276 2.276 0 1 0-4.551 0 2.276 2.276 0 0 0 4.551 0ZM431.17400000000004 28.74a2.276 2.276 0 1 0-4.551 0 2.276 2.276 0 0 0 4.551 0Zm-2.276 0"/><path fill="none" stroke="gray" d="m394.756 31.016-8.536 11.38M406.137 31.016l-8.536 11.38M417.518 31.016l-8.536 11.38M428.898 31.016l-8.535 11.38M440.28 31.016l-8.536 11.38"/><g fill="#003" stroke="#003" stroke-width=".8"><path fill="none" d="M-71.87 3.701c0-18.857 15.286-34.143 34.144-34.143S-3.583-15.156-3.583 3.7c0 5.992-1.578 11.883-2.511 13.5"/><path stroke-width=".799992" d="m-7.588 19.787 3.45-2.823-2.056.41-.675-1.986Z"/><g fill="#003" stroke="none" font-family="cmr10" font-size="10"><text x="-37.726" y="3.701" transform="translate(.957 -36.661)">30</text><text x="-24.393" y="3.701" transform="translate(.957 -36.661)">kN.m</text></g></g><g stroke-width=".8"><path fill="none" d="M76.085-53.204h227.622"/><g stroke="none" font-family="cmr10" font-size="10"><text x="-37.726" y="3.701" transform="translate(207.9 -65.138)">10</text><text x="-24.393" y="3.701" transform="translate(207.9 -65.138)">kN/m</text></g></g><g fill="#003" stroke="#003" stroke-width=".8"><path fill="none" d="M76.085-53.204V-3.27"/><path d="m76.085-.283 1.576-4.17-1.576 1.383-1.577-1.382Z"/></g><g fill="#003" stroke="#003" stroke-width=".8"><path fill="none" d="M104.537-53.204V-3.27"/><path d="m104.537-.283 1.577-4.17-1.577 1.383-1.576-1.382Z"/></g><g fill="#003" stroke="#003" stroke-width=".8"><path fill="none" d="M132.99-53.204V-3.27"/><path d="m132.99-.283 1.577-4.17-1.577 1.383-1.576-1.382Z"/></g><g fill="#003" stroke="#003" stroke-width=".8"><path fill="none" d="M161.443-53.204V-3.27"/><path d="m161.443-.283 1.576-4.17-1.576 1.383-1.577-1.382Z"/></g><g fill="#003" stroke="#003" stroke-width=".8"><path fill="none" d="M189.896-53.204V-3.27"/><path d="m189.896-.283 1.576-4.17-1.576 1.383-1.577-1.382Z"/></g><g fill="#003" stroke="#003" stroke-width=".8"><path fill="none" d="M218.348-53.204V-3.27"/><path d="m218.348-.283 1.577-4.17-1.577 1.383-1.576-1.382Z"/></g><g fill="#003" stroke="#003" stroke-width=".8"><path fill="none" d="M246.801-53.204V-3.27"/><path d="m246.801-.283 1.577-4.17L246.8-3.07l-1.576-1.382Z"/></g><g fill="#003" stroke="#003" stroke-width=".8"><path fill="none" d="M275.254-53.204V-3.27"/><path d="m275.254-.283 1.576-4.17-1.576 1.383-1.577-1.382Z"/></g><g fill="#003" stroke="#003" stroke-width=".8"><path fill="none" d="M303.707-53.204V-3.27"/><path d="m303.707-.283 1.576-4.17-1.576 1.383-1.577-1.382Z"/></g></g></svg>