<svg xmlns="http://www.w3.org/2000/svg" width="253.044" height="168.609" viewBox="-72 -72 189.783 126.457"><g stroke="#000" stroke-miterlimit="10" stroke-width=".4"><text x="-60.689" y="-26.345" stroke="none" font-family="cmbx10" font-size="10" transform="translate(1.653 13.394)">A</text><text x="-60.689" y="-26.345" stroke="none" font-family="cmbx10" font-size="10" transform="translate(109.72 13.394)">B</text><text x="-60.689" y="-26.345" stroke="none" font-family="cmbx10" font-size="10" transform="translate(166.564 13.394)">C</text><g stroke="#999"><path fill="none" d="M-60.39 19.18h170.117M-60.49 21.48v-4.6M109.827 16.88v4.6"/><g fill="#fff"><path stroke="none" d="M13.003 25.734h23.332v-13.11H13.003Z"/><g fill="#000" stroke="none" font-family="cmr10" font-size="10"><text x="-60.689" y="-26.345" transform="translate(77.025 48.747)">3</text><text x="-52.356" y="-26.345" transform="translate(77.025 48.747)">m</text></g></g></g><g stroke="#999"><path fill="none" d="M-60.39 47.632H52.823M-60.49 49.932v-4.6M52.922 45.332v4.6"/><g fill="#fff"><path stroke="none" d="M-15.45 54.187H7.883v-13.11H-15.45Z"/><g fill="#000" stroke="none" font-family="cmr10" font-size="10"><text x="-60.689" y="-26.345" transform="translate(48.572 77.2)">2</text><text x="-52.356" y="-26.345" transform="translate(48.572 77.2)">m</text></g></g></g><g stroke="#999"><path fill="none" d="M53.422 47.632h56.305M53.322 49.932v-4.6M109.827 45.332v4.6"/><g fill="#fff"><path stroke="none" d="M69.908 54.187h23.333v-13.11H69.908Z"/><g fill="#000" stroke="none" font-family="cmr10" font-size="10"><text x="-60.689" y="-26.345" transform="translate(133.93 77.2)">1</text><text x="-52.356" y="-26.345" transform="translate(133.93 77.2)">m</text></g></g></g><path fill="none" stroke="gray" d="m-60.69-3.584-11.38-11.38M-60.69-14.965l-11.38-11.38M-60.69-26.345l-11.38-11.381M-60.69-37.726l-11.38-11.381M-60.69-49.107l-11.38-11.381"/><path fill="none" stroke-width=".8" d="M-60.69 2.107v-56.905"/><path fill="none" stroke-width="2" d="M-60.69-26.345h170.717"/><g fill="#003" stroke="#003" stroke-width=".8"><path fill="none" d="M53.122-71.87v38.553"/><path d="m53.122-30.33 1.576-4.17-1.576 1.383-1.577-1.382Z"/><g fill="#003" stroke="none" font-family="cmr10" font-size="10"><text x="-60.689" y="-26.345" transform="translate(118.544 -20.713)">5</text><text x="-52.356" y="-26.345" transform="translate(118.544 -20.713)">kN</text></g></g></g></svg>