<svg xmlns="http://www.w3.org/2000/svg" width="253.044" height="193.497" viewBox="-72 -72 189.783 145.123"><g stroke="#000" stroke-miterlimit="10" stroke-width=".4"><text x="-60.689" y="-7.68" stroke="none" font-family="cmbx10" font-size="10" transform="translate(4.533 13.43)">A</text><text x="-60.689" y="-7.68" stroke="none" font-family="cmbx10" font-size="10" transform="translate(109.72 15.394)">B</text><text x="-60.689" y="-7.68" stroke="none" font-family="cmbx10" font-size="10" transform="translate(166.564 15.394)">C</text><g stroke="#999"><path fill="none" d="M-60.39 37.845h170.117M-60.49 40.145v-4.6M109.827 35.545v4.6"/><g fill="#fff"><path stroke="none" d="M13.003 44.4h23.332V31.29H13.003Z"/><g fill="#000" stroke="none" font-family="cmr10" font-size="10"><text x="-60.689" y="-7.68" transform="translate(77.025 48.747)">3</text><text x="-52.356" y="-7.68" transform="translate(77.025 48.747)">m</text></g></g></g><g stroke="#999"><path fill="none" d="M-60.39 66.298H52.823M-60.49 68.598v-4.6M52.922 63.998v4.6"/><g fill="#fff"><path stroke="none" d="M-15.45 72.853H7.883v-13.11H-15.45Z"/><g fill="#000" stroke="none" font-family="cmr10" font-size="10"><text x="-60.689" y="-7.68" transform="translate(48.572 77.2)">2</text><text x="-52.356" y="-7.68" transform="translate(48.572 77.2)">m</text></g></g></g><g stroke="#999"><path fill="none" d="M53.422 66.298h56.305M53.322 68.598v-4.6M109.827 63.998v4.6"/><g fill="#fff"><path stroke="none" d="M69.908 72.853h23.333v-13.11H69.908Z"/><g fill="#000" stroke="none" font-family="cmr10" font-size="10"><text x="-60.689" y="-7.68" transform="translate(133.93 77.2)">1</text><text x="-52.356" y="-7.68" transform="translate(133.93 77.2)">m</text></g></g></g><path fill="none" stroke-width="2" d="M-60.69-7.68h170.717"/><path fill="none" stroke-width=".8" d="M-60.69 26.464v-68.287"/><g stroke-width=".8"><path fill="none" d="M53.122-53.204h56.905"/><g stroke="none" font-family="cmr10" font-size="10"><text x="-60.689" y="-7.68" transform="translate(125.041 -53.758)">4</text><text x="-52.356" y="-7.68" transform="translate(125.041 -53.758)">kN/m</text></g></g><path fill="none" stroke="gray" d="m-60.69 20.773-11.38-11.38M-60.69 9.392l-11.38-11.38M-60.69-1.989l-11.38-11.38M-60.69-13.37l-11.38-11.38M-60.69-24.75l-11.38-11.381M-60.69-36.131l-11.38-11.381"/><g fill="#003" stroke="#003" stroke-width=".8"><path fill="none" d="M53.122-53.204v38.553"/><path d="m53.122-11.664 1.576-4.17-1.576 1.383-1.577-1.382Z"/></g><g fill="#003" stroke="#003" stroke-width=".8"><path fill="none" d="M64.503-53.204v38.553"/><path d="m64.503-11.664 1.576-4.17-1.576 1.383-1.577-1.382Z"/></g><g fill="#003" stroke="#003" stroke-width=".8"><path fill="none" d="M75.884-53.204v38.553"/><path d="m75.884-11.664 1.576-4.17-1.576 1.383-1.577-1.382Z"/></g><g fill="#003" stroke="#003" stroke-width=".8"><path fill="none" d="M87.265-53.204v38.553"/><path d="m87.265-11.664 1.576-4.17-1.576 1.383-1.577-1.382Z"/></g><g fill="#003" stroke="#003" stroke-width=".8"><path fill="none" d="M98.646-53.204v38.553"/><path d="m98.646-11.664 1.576-4.17-1.576 1.383-1.577-1.382Z"/></g><g fill="#003" stroke="#003" stroke-width=".8"><path fill="none" d="M110.026-53.204v38.553"/><path d="m110.026-11.664 1.577-4.17-1.577 1.383-1.576-1.382Z"/></g></g></svg>