<svg xmlns="http://www.w3.org/2000/svg" width="415.092" height="267.586" viewBox="-72 -72 311.319 200.69"><g stroke="#000" stroke-miterlimit="10" stroke-width=".4"><path fill="none" stroke-width="2" d="M-52.153 30.815 4.753-11.864M4.753-11.864l56.905-42.679M61.658-54.543l56.906 42.68M118.564-11.864l56.905 42.68M175.47 30.815H61.657M61.658 30.815h-113.81M4.753-11.864l56.905 42.68M118.564-11.864l-56.906 42.68M61.658-54.543v85.358"/><text x="-52.153" y="30.815" stroke="none" font-family="cmbx10" font-size="10" transform="translate(-14.227 12.394)">A</text><text x="-52.153" y="30.815" stroke="none" font-family="cmbx10" font-size="10" transform="translate(43.192 -48.212)">B</text><text x="-52.153" y="30.815" stroke="none" font-family="cmbx10" font-size="10" transform="translate(109.658 -92.891)">C</text><text x="-52.153" y="30.815" stroke="none" font-family="cmbx10" font-size="10" transform="translate(176.25 -48.212)">D</text><text x="-52.153" y="30.815" stroke="none" font-family="cmbx10" font-size="10" transform="translate(233.155 12.394)">E</text><text x="-52.153" y="30.815" stroke="none" font-family="cmbx10" font-size="10" transform="translate(101.042 12.394)">F</text><path fill="none" stroke-width=".8" d="m-52.153 30.815-11.38 19.918h22.761ZM-69.225 56.423h34.144"/><path fill="#fff" d="M-54.998000000000005 53.577a2.845 2.845 0 1 0-5.691 0 2.845 2.845 0 0 0 5.69 0ZM-43.616 53.577a2.845 2.845 0 1 0-5.691 0 2.845 2.845 0 0 0 5.69 0Zm-2.846 0"/><path fill="none" stroke="gray" d="m-66.38 56.423-5.69 8.536M-57.844 56.423l-5.69 8.536M-49.307 56.423l-5.691 8.536M-40.772 56.423l-5.69 8.536"/><path fill="none" stroke-width=".8" d="m175.47 30.815-11.382 22.762h22.762ZM152.707 53.577h45.524"/><path fill="none" stroke="gray" d="m158.397 53.577-5.69 8.536M169.778 53.577l-5.69 8.536M181.16 53.577l-5.69 8.536M192.541 53.577l-5.69 8.536"/><g stroke="#999"><path fill="none" d="M-51.853 99.102H175.17M-51.953 101.402v-4.6M175.27 96.802v4.6"/><g fill="#fff"><path stroke="none" d="M49.992 105.657h23.333v-13.11H49.992Z"/><g fill="#000" stroke="none" font-family="cmr10" font-size="10"><text x="-52.153" y="30.815" transform="translate(105.478 71.509)">4</text><text x="-43.819" y="30.815" transform="translate(105.478 71.509)">m</text></g></g></g><g stroke="#999"><path fill="none" d="M-51.853 121.864H4.453M-51.953 124.164v-4.6M4.553 119.564v4.6"/><g fill="#fff"><path stroke="none" d="M-35.366 128.42h23.332v-13.11h-23.332Z"/><g fill="#000" stroke="none" font-family="cmr10" font-size="10"><text x="-52.153" y="30.815" transform="translate(20.12 94.271)">1</text><text x="-43.819" y="30.815" transform="translate(20.12 94.271)">m</text></g></g></g><g stroke="#999"><path fill="none" d="M5.053 121.864h56.305M4.953 124.164v-4.6M61.458 119.564v4.6"/><g fill="#fff"><path stroke="none" d="M21.54 128.42h23.332v-13.11H21.539Z"/><g fill="#000" stroke="none" font-family="cmr10" font-size="10"><text x="-52.153" y="30.815" transform="translate(77.025 94.271)">1</text><text x="-43.819" y="30.815" transform="translate(77.025 94.271)">m</text></g></g></g><g stroke="#999"><path fill="none" d="M61.958 121.864h56.306M61.858 124.164v-4.6M118.364 119.564v4.6"/><g fill="#fff"><path stroke="none" d="M78.445 128.42h23.332v-13.11H78.445Z"/><g fill="#000" stroke="none" font-family="cmr10" font-size="10"><text x="-52.153" y="30.815" transform="translate(133.93 94.271)">1</text><text x="-43.819" y="30.815" transform="translate(133.93 94.271)">m</text></g></g></g><g stroke="#999"><path fill="none" d="M118.864 121.864h56.305M118.764 124.164v-4.6M175.27 119.564v4.6"/><g fill="#fff"><path stroke="none" d="M135.35 128.42h23.333v-13.11H135.35Z"/><g fill="#000" stroke="none" font-family="cmr10" font-size="10"><text x="-52.153" y="30.815" transform="translate(190.836 94.271)">1</text><text x="-43.819" y="30.815" transform="translate(190.836 94.271)">m</text></g></g></g><g stroke="#999"><path fill="none" d="M220.994 30.515v-42.079M223.294 30.615h-4.6M218.694-11.664h4.6"/><g fill="#fff"><path stroke="none" d="M202.939 16.03h36.11V2.92h-36.11Z"/><g fill="#000" stroke="none" font-family="cmr10" font-size="10"><text x="-52.153" y="30.815" transform="translate(258.424 -18.117)">0.75</text><text x="-31.042" y="30.815" transform="translate(258.424 -18.117)">m</text></g></g></g><g stroke="#999"><path fill="none" d="M220.994-12.164v-42.079M223.294-12.064h-4.6M218.694-54.343h4.6"/><g fill="#fff"><path stroke="none" d="M202.939-26.648h36.11v-13.11h-36.11Z"/><g fill="#000" stroke="none" font-family="cmr10" font-size="10"><text x="-52.153" y="30.815" transform="translate(258.424 -60.796)">0.75</text><text x="-31.042" y="30.815" transform="translate(258.424 -60.796)">m</text></g></g></g><g fill="#003" stroke="#003" stroke-width=".8"><path fill="none" d="M4.753-48.852v30.017"/><path d="m4.753-15.848 1.576-4.17-1.576 1.383-1.577-1.382Z"/><g fill="#003" stroke="none" font-family="cmr10" font-size="10"><text x="-52.153" y="30.815" transform="translate(43.85 -67.257)">10</text><text x="-38.819" y="30.815" transform="translate(43.85 -67.257)">kN</text></g></g><g fill="#003" stroke="#003" stroke-width=".8"><path fill="none" d="M61.658-54.543h41.4"/><path d="m106.044-54.543-4.17-1.576 1.383 1.576-1.382 1.577Z"/><g fill="#003" stroke="none" font-family="cmr10" font-size="10"><text x="-52.153" y="30.815" transform="translate(163.068 -81.886)">8</text><text x="-43.819" y="30.815" transform="translate(163.068 -81.886)">kN</text></g></g><g fill="#003" stroke="#003" stroke-width=".8"><path fill="none" d="M61.658 36.506v35.708"/><path d="m61.658 75.2 1.577-4.168-1.577 1.382-1.576-1.382Z"/><g fill="#003" stroke="none" font-family="cmr10" font-size="10"><text x="-52.153" y="30.815" transform="translate(100.755 56.202)">15</text><text x="-38.819" y="30.815" transform="translate(100.755 56.202)">kN</text></g></g></g></svg>