<svg xmlns="http://www.w3.org/2000/svg" width="708.508" height="474.231" viewBox="-72 -72 531.381 355.673"><g stroke="#000" stroke-miterlimit="10" stroke-width=".4"><text x="-20.19" y="174.418" stroke="none" font-family="cmbx10" font-size="10" transform="translate(-16.227 3.43)">A</text><text x="-20.19" y="174.418" stroke="none" font-family="cmbx10" font-size="10" transform="translate(103.72 -176.25)">B</text><text x="-20.19" y="174.418" stroke="none" font-family="cmbx10" font-size="10" transform="translate(345.28 -176.25)">C</text><text x="-20.19" y="174.418" stroke="none" font-family="cmbx10" font-size="10" transform="translate(352.966 11.43)">D</text><g stroke="#999"><path fill="none" d="M-19.89 242.704h340.833M-19.99 245.004v-4.6M321.043 240.404v4.6"/><g fill="#fff"><path stroke="none" d="M138.86 249.26h23.333v-13.11H138.86Z"/><g fill="#000" stroke="none" font-family="cmr10" font-size="10"><text x="-20.19" y="174.418" transform="translate(162.383 71.509)">6</text><text x="-11.857" y="174.418" transform="translate(162.383 71.509)">m</text></g></g></g><g stroke="#999"><path fill="none" d="M-19.89 276.848H93.32M-19.99 279.148v-4.6M93.42 274.548v4.6"/><g fill="#fff"><path stroke="none" d="M25.049 283.403h23.333v-13.11H25.049Z"/><g fill="#000" stroke="none" font-family="cmr10" font-size="10"><text x="-20.19" y="174.418" transform="translate(48.572 105.652)">2</text><text x="-11.857" y="174.418" transform="translate(48.572 105.652)">m</text></g></g></g><g stroke="#999"><path fill="none" d="M93.92 276.848h227.023M93.82 279.148v-4.6M321.043 274.548v4.6"/><g fill="#fff"><path stroke="none" d="M195.765 283.403h23.333v-13.11h-23.333Z"/><g fill="#000" stroke="none" font-family="cmr10" font-size="10"><text x="-20.19" y="174.418" transform="translate(219.289 105.652)">4</text><text x="-11.857" y="174.418" transform="translate(219.289 105.652)">m</text></g></g></g><g stroke="#999"><path fill="none" d="M-65.715 174.118V4M-63.415 174.218h-4.6M-68.015 3.901h4.6"/><g fill="#fff"><path stroke="none" d="M-72.27 77.393v23.333h13.11V77.393Zm13.11 23.333"/><g fill="#000" stroke="none" font-family="cmr10" font-size="10"><text x="-20.19" y="174.418" transform="rotate(-90 -79.854 157.057)">3</text><text x="-11.857" y="174.418" transform="rotate(-90 -79.854 157.057)">m</text></g></g></g><path fill="none" stroke-width="2" d="M-20.19 174.418 93.62 3.7M93.62 3.701h227.623M321.243 3.701v170.717"/><path fill="none" stroke-width=".8" d="m-20.19 174.418-17.072 28.453h34.144ZM-48.643 202.87H8.262"/><path fill="none" stroke="gray" d="m-42.952 202.87-8.536 11.382M-31.571 202.87l-8.536 11.382M-20.19 202.87l-8.536 11.382M-8.81 202.87l-8.535 11.382M2.572 202.87l-8.536 11.382"/><path fill="none" stroke-width=".8" d="M321.243 174.418 304.17 197.18h34.143ZM292.79 201.732h56.905"/><path fill="#fff" stroke-width=".8" d="M312.13800000000003 199.456a2.276 2.276 0 1 0-4.552 0 2.276 2.276 0 0 0 4.552 0ZM323.518 199.456a2.276 2.276 0 1 0-4.551 0 2.276 2.276 0 0 0 4.551 0ZM334.899 199.456a2.276 2.276 0 1 0-4.551 0 2.276 2.276 0 0 0 4.551 0Zm-2.275 0"/><path fill="none" stroke="gray" d="m298.48 201.732-8.535 11.381M309.862 201.732l-8.536 11.381M321.243 201.732l-8.536 11.381M332.624 201.732l-8.536 11.381M344.004 201.732l-8.535 11.381"/><g stroke-width=".8"><path fill="none" d="M-20.19-53.204h341.433"/><g stroke="none" font-family="cmr10" font-size="10"><text x="-20.19" y="174.418" transform="translate(150.994 -235.855)">20</text><text x="-6.857" y="174.418" transform="translate(150.994 -235.855)">kN/m</text></g></g><g fill="#003" stroke="#003" stroke-width=".8"><path fill="none" d="M-20.19-53.204V-3.27"/><path d="m-20.19-.283 1.576-4.17-1.576 1.383-1.577-1.382Z"/></g><g fill="#003" stroke="#003" stroke-width=".8"><path fill="none" d="M8.262-53.204V-3.27"/><path d="m8.262-.283 1.577-4.17L8.262-3.07 6.686-4.452Z"/></g><g fill="#003" stroke="#003" stroke-width=".8"><path fill="none" d="M36.715-53.204V-3.27"/><path d="m36.715-.283 1.577-4.17-1.577 1.383-1.576-1.382Z"/></g><g fill="#003" stroke="#003" stroke-width=".8"><path fill="none" d="M65.168-53.204V-3.27"/><path d="m65.168-.283 1.576-4.17-1.576 1.383-1.577-1.382Z"/></g><g fill="#003" stroke="#003" stroke-width=".8"><path fill="none" d="M93.62-53.204V-3.27"/><path d="m93.62-.283 1.577-4.17-1.576 1.383-1.577-1.382Z"/></g><g fill="#003" stroke="#003" stroke-width=".8"><path fill="none" d="M122.073-53.204V-3.27"/><path d="m122.073-.283 1.577-4.17-1.577 1.383-1.576-1.382Z"/></g><g fill="#003" stroke="#003" stroke-width=".8"><path fill="none" d="M150.526-53.204V-3.27"/><path d="m150.526-.283 1.577-4.17-1.577 1.383-1.576-1.382Z"/></g><g fill="#003" stroke="#003" stroke-width=".8"><path fill="none" d="M178.979-53.204V-3.27"/><path d="m178.979-.283 1.576-4.17-1.576 1.383-1.577-1.382Z"/></g><g fill="#003" stroke="#003" stroke-width=".8"><path fill="none" d="M207.432-53.204V-3.27"/><path d="m207.432-.283 1.576-4.17-1.576 1.383-1.577-1.382Z"/></g><g fill="#003" stroke="#003" stroke-width=".8"><path fill="none" d="M235.884-53.204V-3.27"/><path d="m235.884-.283 1.577-4.17-1.577 1.383-1.576-1.382Z"/></g><g fill="#003" stroke="#003" stroke-width=".8"><path fill="none" d="M264.337-53.204V-3.27"/><path d="m264.337-.283 1.577-4.17-1.577 1.383-1.576-1.382Z"/></g><g fill="#003" stroke="#003" stroke-width=".8"><path fill="none" d="M292.79-53.204V-3.27"/><path d="m292.79-.283 1.576-4.17-1.576 1.383-1.577-1.382Z"/></g><g fill="#003" stroke="#003" stroke-width=".8"><path fill="none" d="M321.243-53.204V-3.27"/><path d="m321.243-.283 1.576-4.17-1.576 1.383-1.577-1.382Z"/></g><g stroke-width=".8"><path fill="none" d="M321.243 3.701 406.6 174.418"/><g stroke="none" font-family="cmr10" font-size="10"><text x="-20.19" y="174.418" transform="translate(436.524 5.5)">16</text><text x="-6.857" y="174.418" transform="translate(436.524 5.5)">kN/m</text></g></g><g fill="#003" stroke="#003" stroke-width=".8"><path fill="none" d="M406.6 174.418h-78.386"/><path d="m325.227 174.418 4.17 1.576-1.383-1.576 1.382-1.577Z"/></g><g fill="#003" stroke="#003" stroke-width=".8"><path fill="none" d="M392.374 145.965h-64.16"/><path d="m325.227 145.965 4.17 1.577-1.383-1.577 1.382-1.576Z"/></g><g fill="#003" stroke="#003" stroke-width=".8"><path fill="none" d="M378.148 117.512h-49.934"/><path d="m325.227 117.512 4.17 1.577-1.383-1.577 1.382-1.576Z"/></g><g fill="#003" stroke="#003" stroke-width=".8"><path fill="none" d="M363.922 89.06h-35.708"/><path d="m325.227 89.06 4.17 1.576-1.383-1.576 1.382-1.577Z"/></g><g fill="#003" stroke="#003" stroke-width=".8"><path fill="none" d="M349.695 60.607h-21.481"/><path d="m325.227 60.607 4.17 1.576-1.383-1.576 1.382-1.577Z"/></g><g fill="#003" stroke="#003" stroke-width=".8"><path fill="none" d="M335.469 32.154h-7.255"/><path d="m325.227 32.154 4.17 1.577-1.383-1.577 1.382-1.576Z"/></g></g></svg>